<mxfile host="www.draw.io" modified="2019-10-15T11:56:30.686Z" agent="Mozilla/5.0 (Windows NT 10.0; Win64; x64) AppleWebKit/537.36 (KHTML, like Gecko) Chrome/77.0.3865.90 Safari/537.36" etag="vnqJ1oOqdjQrFMk77X1-" version="12.1.1" type="github" pages="1">
  <diagram name="Page-1" id="e7e014a7-5840-1c2e-5031-d8a46d1fe8dd">
    <mxGraphModel dx="1264" dy="534" grid="1" gridSize="10" guides="1" tooltips="1" connect="1" arrows="1" fold="1" page="1" pageScale="1" pageWidth="1169" pageHeight="826" background="#ffffff" math="0" shadow="0">
      <root>
        <mxCell id="0"/>
        <mxCell id="1" parent="0"/>
        <mxCell id="LFXo94fJ0sIlH8z8r5xg-41" value="" style="edgeStyle=orthogonalEdgeStyle;rounded=0;orthogonalLoop=1;jettySize=auto;html=1;" parent="1" source="LFXo94fJ0sIlH8z8r5xg-43" target="LFXo94fJ0sIlH8z8r5xg-51" edge="1">
          <mxGeometry relative="1" as="geometry"/>
        </mxCell>
        <mxCell id="LFXo94fJ0sIlH8z8r5xg-42" value="" style="edgeStyle=orthogonalEdgeStyle;rounded=0;orthogonalLoop=1;jettySize=auto;html=1;" parent="1" source="LFXo94fJ0sIlH8z8r5xg-43" target="LFXo94fJ0sIlH8z8r5xg-47" edge="1">
          <mxGeometry relative="1" as="geometry"/>
        </mxCell>
        <mxCell id="WU4-prx6dVndjo4hRYrT-12" value="" style="edgeStyle=orthogonalEdgeStyle;rounded=0;orthogonalLoop=1;jettySize=auto;html=1;" parent="1" source="LFXo94fJ0sIlH8z8r5xg-43" target="WU4-prx6dVndjo4hRYrT-8" edge="1">
          <mxGeometry relative="1" as="geometry"/>
        </mxCell>
        <mxCell id="LFXo94fJ0sIlH8z8r5xg-43" value="User" style="swimlane;fontStyle=3;align=center;verticalAlign=top;childLayout=stackLayout;horizontal=1;startSize=26;horizontalStack=0;resizeParent=1;resizeParentMax=0;resizeLast=0;collapsible=1;marginBottom=0;" parent="1" vertex="1">
          <mxGeometry x="350" y="29" width="160" height="190" as="geometry">
            <mxRectangle x="350" y="29" width="70" height="26" as="alternateBounds"/>
          </mxGeometry>
        </mxCell>
        <mxCell id="LFXo94fJ0sIlH8z8r5xg-44" value="-userName: string&#xa;-password: string&#xa;-email: string&#xa;-phoneNumber: string&#xa;-firstName: string&#xa;-lastName: string&#xa;" style="text;strokeColor=none;fillColor=none;align=left;verticalAlign=top;spacingLeft=4;spacingRight=4;overflow=hidden;rotatable=0;points=[[0,0.5],[1,0.5]];portConstraint=eastwest;" parent="LFXo94fJ0sIlH8z8r5xg-43" vertex="1">
          <mxGeometry y="26" width="160" height="104" as="geometry"/>
        </mxCell>
        <mxCell id="LFXo94fJ0sIlH8z8r5xg-45" value="" style="line;strokeWidth=1;fillColor=none;align=left;verticalAlign=middle;spacingTop=-1;spacingLeft=3;spacingRight=3;rotatable=0;labelPosition=right;points=[];portConstraint=eastwest;" parent="LFXo94fJ0sIlH8z8r5xg-43" vertex="1">
          <mxGeometry y="130" width="160" height="8" as="geometry"/>
        </mxCell>
        <mxCell id="LFXo94fJ0sIlH8z8r5xg-46" value="+register()&#xa;+login()&#xa;+updateProfile()" style="text;strokeColor=none;fillColor=none;align=left;verticalAlign=top;spacingLeft=4;spacingRight=4;overflow=hidden;rotatable=0;points=[[0,0.5],[1,0.5]];portConstraint=eastwest;" parent="LFXo94fJ0sIlH8z8r5xg-43" vertex="1">
          <mxGeometry y="138" width="160" height="52" as="geometry"/>
        </mxCell>
        <mxCell id="WU4-prx6dVndjo4hRYrT-8" value="Admin" style="swimlane;fontStyle=1;align=center;verticalAlign=top;childLayout=stackLayout;horizontal=1;startSize=26;horizontalStack=0;resizeParent=1;resizeParentMax=0;resizeLast=0;collapsible=1;marginBottom=0;" parent="1" vertex="1">
          <mxGeometry x="600" y="29" width="160" height="160" as="geometry">
            <mxRectangle x="350" y="29" width="70" height="26" as="alternateBounds"/>
          </mxGeometry>
        </mxCell>
        <mxCell id="WU4-prx6dVndjo4hRYrT-9" value="-adminName: string" style="text;strokeColor=none;fillColor=none;align=left;verticalAlign=top;spacingLeft=4;spacingRight=4;overflow=hidden;rotatable=0;points=[[0,0.5],[1,0.5]];portConstraint=eastwest;" parent="WU4-prx6dVndjo4hRYrT-8" vertex="1">
          <mxGeometry y="26" width="160" height="34" as="geometry"/>
        </mxCell>
        <mxCell id="WU4-prx6dVndjo4hRYrT-10" value="" style="line;strokeWidth=1;fillColor=none;align=left;verticalAlign=middle;spacingTop=-1;spacingLeft=3;spacingRight=3;rotatable=0;labelPosition=right;points=[];portConstraint=eastwest;" parent="WU4-prx6dVndjo4hRYrT-8" vertex="1">
          <mxGeometry y="60" width="160" height="8" as="geometry"/>
        </mxCell>
        <mxCell id="WU4-prx6dVndjo4hRYrT-11" value="+removeStudent()&#xa;+removeTeacher()&#xa;+getInformationCourses()&#xa;+getInformationClassroom()" style="text;strokeColor=none;fillColor=none;align=left;verticalAlign=top;spacingLeft=4;spacingRight=4;overflow=hidden;rotatable=0;points=[[0,0.5],[1,0.5]];portConstraint=eastwest;" parent="WU4-prx6dVndjo4hRYrT-8" vertex="1">
          <mxGeometry y="68" width="160" height="92" as="geometry"/>
        </mxCell>
        <mxCell id="LFXo94fJ0sIlH8z8r5xg-47" value="Teacher" style="swimlane;fontStyle=1;align=center;verticalAlign=top;childLayout=stackLayout;horizontal=1;startSize=26;horizontalStack=0;resizeParent=1;resizeParentMax=0;resizeLast=0;collapsible=1;marginBottom=0;" parent="1" vertex="1">
          <mxGeometry x="240" y="264.5" width="160" height="200" as="geometry">
            <mxRectangle x="350" y="29" width="70" height="26" as="alternateBounds"/>
          </mxGeometry>
        </mxCell>
        <mxCell id="LFXo94fJ0sIlH8z8r5xg-48" value="+studyProgram: string&#xa;" style="text;strokeColor=none;fillColor=none;align=left;verticalAlign=top;spacingLeft=4;spacingRight=4;overflow=hidden;rotatable=0;points=[[0,0.5],[1,0.5]];portConstraint=eastwest;" parent="LFXo94fJ0sIlH8z8r5xg-47" vertex="1">
          <mxGeometry y="26" width="160" height="44" as="geometry"/>
        </mxCell>
        <mxCell id="LFXo94fJ0sIlH8z8r5xg-49" value="" style="line;strokeWidth=1;fillColor=none;align=left;verticalAlign=middle;spacingTop=-1;spacingLeft=3;spacingRight=3;rotatable=0;labelPosition=right;points=[];portConstraint=eastwest;" parent="LFXo94fJ0sIlH8z8r5xg-47" vertex="1">
          <mxGeometry y="70" width="160" height="8" as="geometry"/>
        </mxCell>
        <mxCell id="LFXo94fJ0sIlH8z8r5xg-50" value="+createLecture()&#xa;+updateLecture()&#xa;+removeLecture()&#xa;+getInformationStudent()&#xa;+getInformationClassroom()&#xa;+addStudent()&#xa;+removeStudent()" style="text;strokeColor=none;fillColor=none;align=left;verticalAlign=top;spacingLeft=4;spacingRight=4;overflow=hidden;rotatable=0;points=[[0,0.5],[1,0.5]];portConstraint=eastwest;" parent="LFXo94fJ0sIlH8z8r5xg-47" vertex="1">
          <mxGeometry y="78" width="160" height="122" as="geometry"/>
        </mxCell>
        <mxCell id="LFXo94fJ0sIlH8z8r5xg-51" value="Student" style="swimlane;fontStyle=1;align=center;verticalAlign=top;childLayout=stackLayout;horizontal=1;startSize=26;horizontalStack=0;resizeParent=1;resizeParentMax=0;resizeLast=0;collapsible=1;marginBottom=0;" parent="1" vertex="1">
          <mxGeometry x="480" y="264.5" width="160" height="150" as="geometry">
            <mxRectangle x="350" y="29" width="70" height="26" as="alternateBounds"/>
          </mxGeometry>
        </mxCell>
        <mxCell id="LFXo94fJ0sIlH8z8r5xg-52" value="+studyProgram: string&#xa;-creditCardInfo: string&#xa;-courses: array&#xa;-semester: number" style="text;strokeColor=none;fillColor=none;align=left;verticalAlign=top;spacingLeft=4;spacingRight=4;overflow=hidden;rotatable=0;points=[[0,0.5],[1,0.5]];portConstraint=eastwest;" parent="LFXo94fJ0sIlH8z8r5xg-51" vertex="1">
          <mxGeometry y="26" width="160" height="64" as="geometry"/>
        </mxCell>
        <mxCell id="LFXo94fJ0sIlH8z8r5xg-53" value="" style="line;strokeWidth=1;fillColor=none;align=left;verticalAlign=middle;spacingTop=-1;spacingLeft=3;spacingRight=3;rotatable=0;labelPosition=right;points=[];portConstraint=eastwest;" parent="LFXo94fJ0sIlH8z8r5xg-51" vertex="1">
          <mxGeometry y="90" width="160" height="8" as="geometry"/>
        </mxCell>
        <mxCell id="LFXo94fJ0sIlH8z8r5xg-54" value="+getInformationCourses()&#xa;+setInformationStudent()&#xa;+joinLecture()&#xa;" style="text;strokeColor=none;fillColor=none;align=left;verticalAlign=top;spacingLeft=4;spacingRight=4;overflow=hidden;rotatable=0;points=[[0,0.5],[1,0.5]];portConstraint=eastwest;" parent="LFXo94fJ0sIlH8z8r5xg-51" vertex="1">
          <mxGeometry y="98" width="160" height="52" as="geometry"/>
        </mxCell>
        <mxCell id="LFXo94fJ0sIlH8z8r5xg-62" value="Classroom" style="swimlane;fontStyle=1;align=center;verticalAlign=top;childLayout=stackLayout;horizontal=1;startSize=26;horizontalStack=0;resizeParent=1;resizeParentMax=0;resizeLast=0;collapsible=1;marginBottom=0;" parent="1" vertex="1">
          <mxGeometry x="140" y="29" width="160" height="140" as="geometry"/>
        </mxCell>
        <mxCell id="LFXo94fJ0sIlH8z8r5xg-63" value="-size: number&#xa;-location: string" style="text;strokeColor=none;fillColor=none;align=left;verticalAlign=top;spacingLeft=4;spacingRight=4;overflow=hidden;rotatable=0;points=[[0,0.5],[1,0.5]];portConstraint=eastwest;" parent="LFXo94fJ0sIlH8z8r5xg-62" vertex="1">
          <mxGeometry y="26" width="160" height="64" as="geometry"/>
        </mxCell>
        <mxCell id="LFXo94fJ0sIlH8z8r5xg-64" value="" style="line;strokeWidth=1;fillColor=none;align=left;verticalAlign=middle;spacingTop=-1;spacingLeft=3;spacingRight=3;rotatable=0;labelPosition=right;points=[];portConstraint=eastwest;" parent="LFXo94fJ0sIlH8z8r5xg-62" vertex="1">
          <mxGeometry y="90" width="160" height="8" as="geometry"/>
        </mxCell>
        <mxCell id="LFXo94fJ0sIlH8z8r5xg-65" value="+availability()&#xa;+setInformationClassroom()" style="text;strokeColor=none;fillColor=none;align=left;verticalAlign=top;spacingLeft=4;spacingRight=4;overflow=hidden;rotatable=0;points=[[0,0.5],[1,0.5]];portConstraint=eastwest;" parent="LFXo94fJ0sIlH8z8r5xg-62" vertex="1">
          <mxGeometry y="98" width="160" height="42" as="geometry"/>
        </mxCell>
        <mxCell id="WU4-prx6dVndjo4hRYrT-13" value="Courses" style="swimlane;fontStyle=1;align=center;verticalAlign=top;childLayout=stackLayout;horizontal=1;startSize=26;horizontalStack=0;resizeParent=1;resizeParentMax=0;resizeLast=0;collapsible=1;marginBottom=0;" parent="1" vertex="1">
          <mxGeometry x="690" y="275.5" width="160" height="94" as="geometry"/>
        </mxCell>
        <mxCell id="WU4-prx6dVndjo4hRYrT-14" value="+studyProgram&#xa;-semester: number&#xa;&#xa;&#xa;&#xa;&#xa;" style="text;strokeColor=none;fillColor=none;align=left;verticalAlign=top;spacingLeft=4;spacingRight=4;overflow=hidden;rotatable=0;points=[[0,0.5],[1,0.5]];portConstraint=eastwest;" parent="WU4-prx6dVndjo4hRYrT-13" vertex="1">
          <mxGeometry y="26" width="160" height="34" as="geometry"/>
        </mxCell>
        <mxCell id="WU4-prx6dVndjo4hRYrT-15" value="" style="line;strokeWidth=1;fillColor=none;align=left;verticalAlign=middle;spacingTop=-1;spacingLeft=3;spacingRight=3;rotatable=0;labelPosition=right;points=[];portConstraint=eastwest;" parent="WU4-prx6dVndjo4hRYrT-13" vertex="1">
          <mxGeometry y="60" width="160" height="8" as="geometry"/>
        </mxCell>
        <mxCell id="WU4-prx6dVndjo4hRYrT-16" value="+setInformationCourses()" style="text;strokeColor=none;fillColor=none;align=left;verticalAlign=top;spacingLeft=4;spacingRight=4;overflow=hidden;rotatable=0;points=[[0,0.5],[1,0.5]];portConstraint=eastwest;" parent="WU4-prx6dVndjo4hRYrT-13" vertex="1">
          <mxGeometry y="68" width="160" height="26" as="geometry"/>
        </mxCell>
        <mxCell id="Mo_HEQDu9f61IMxNvAWy-3" value="" style="shape=link;rounded=0;orthogonalLoop=1;jettySize=auto;html=1;" parent="1" source="LFXo94fJ0sIlH8z8r5xg-52" target="WU4-prx6dVndjo4hRYrT-14" edge="1">
          <mxGeometry relative="1" as="geometry"/>
        </mxCell>
      </root>
    </mxGraphModel>
  </diagram>
</mxfile>
